<svg width="18" height="18" viewBox="0 0 18 18" fill="none" xmlns="http://www.w3.org/2000/svg">
<path d="M13.1665 2.49999H16.4998C16.7208 2.49999 16.9328 2.58779 17.0891 2.74407C17.2454 2.90035 17.3332 3.11231 17.3332 3.33333V16.6667C17.3332 16.8877 17.2454 17.0996 17.0891 17.2559C16.9328 17.4122 16.7208 17.5 16.4998 17.5H1.49984C1.27882 17.5 1.06686 17.4122 0.910582 17.2559C0.754301 17.0996 0.666504 16.8877 0.666504 16.6667V3.33333C0.666504 3.11231 0.754301 2.90035 0.910582 2.74407C1.06686 2.58779 1.27882 2.49999 1.49984 2.49999H4.83317V0.833328H6.49984V2.49999H11.4998V0.833328H13.1665V2.49999ZM15.6665 9.16666H2.33317V15.8333H15.6665V9.16666ZM11.4998 4.16666H6.49984V5.83333H4.83317V4.16666H2.33317V7.49999H15.6665V4.16666H13.1665V5.83333H11.4998V4.16666ZM3.99984 10.8333H5.6665V12.5H3.99984V10.8333ZM8.1665 10.8333H9.83317V12.5H8.1665V10.8333ZM12.3332 10.8333H13.9998V12.5H12.3332V10.8333Z" fill="#7C7C7C"/>
</svg>
