<svg width="18" height="16" viewBox="0 0 18 16" fill="none" xmlns="http://www.w3.org/2000/svg">
<path d="M1.49984 0.5H16.4998C16.7208 0.5 16.9328 0.587797 17.0891 0.744078C17.2454 0.900358 17.3332 1.11232 17.3332 1.33333V14.6667C17.3332 14.8877 17.2454 15.0996 17.0891 15.2559C16.9328 15.4122 16.7208 15.5 16.4998 15.5H1.49984C1.27882 15.5 1.06686 15.4122 0.910582 15.2559C0.754301 15.0996 0.666504 14.8877 0.666504 14.6667V1.33333C0.666504 1.11232 0.754301 0.900358 0.910582 0.744078C1.06686 0.587797 1.27882 0.5 1.49984 0.5ZM2.33317 2.16667V13.8333H15.6665V2.16667H2.33317ZM13.0832 8.83333C12.8741 9.84279 12.2983 10.739 11.4671 11.3487C10.6359 11.9585 9.60824 12.2387 8.58257 12.1351C7.5569 12.0315 6.60601 11.5515 5.91355 10.7878C5.22108 10.0241 4.83618 9.03088 4.83317 8C4.83329 7.03954 5.16508 6.10859 5.77246 5.36455C6.37983 4.62052 7.22551 4.10907 8.1665 3.91667V8.83333H13.0832ZM13.0832 7.16667H9.83317V3.91667C10.6336 4.08058 11.3684 4.47595 11.9461 5.05372C12.5239 5.63148 12.9193 6.36619 13.0832 7.16667Z" fill="#7C7C7C"/>
</svg>
