<svg width="20" height="20" viewBox="0 0 20 20" fill="none" xmlns="http://www.w3.org/2000/svg">
<g clip-path="url(#clip0_21_9110)">
<path d="M3.1525 2.35501L10 0.833344L16.8475 2.35501C17.0326 2.39615 17.198 2.49915 17.3167 2.64701C17.4353 2.79488 17.5 2.97877 17.5 3.16834V11.4908C17.4999 12.314 17.2967 13.1243 16.9082 13.85C16.5198 14.5757 15.9582 15.1943 15.2733 15.6508L10 19.1667L4.72667 15.6508C4.04189 15.1944 3.48038 14.5759 3.09196 13.8504C2.70353 13.1248 2.5002 12.3146 2.5 11.4917V3.16834C2.50003 2.97877 2.5647 2.79488 2.68332 2.64701C2.80195 2.49915 2.96745 2.39615 3.1525 2.35501ZM4.16667 3.83668V11.4908C4.16668 12.0396 4.30215 12.5798 4.56105 13.0636C4.81996 13.5474 5.19429 13.9598 5.65083 14.2642L10 17.1642L14.3492 14.2642C14.8056 13.9599 15.1799 13.5476 15.4388 13.064C15.6977 12.5803 15.8332 12.0403 15.8333 11.4917V3.83668L10 2.54168L4.16667 3.83668Z" fill="#7C7C7C"/>
</g>
<defs>
<clipPath id="clip0_21_9110">
<rect width="20" height="20" fill="white"/>
</clipPath>
</defs>
</svg>
