<svg width="20" height="20" viewBox="0 0 20 20" fill="none" xmlns="http://www.w3.org/2000/svg">
<g clip-path="url(#clip0_21_9126)">
<path d="M1.6665 18.3333C1.6665 16.5652 2.36888 14.8695 3.61913 13.6193C4.86937 12.369 6.56506 11.6666 8.33317 11.6666C10.1013 11.6666 11.797 12.369 13.0472 13.6193C14.2975 14.8695 14.9998 16.5652 14.9998 18.3333H13.3332C13.3332 17.0072 12.8064 15.7355 11.8687 14.7978C10.931 13.8601 9.65925 13.3333 8.33317 13.3333C7.00709 13.3333 5.73532 13.8601 4.79764 14.7978C3.85995 15.7355 3.33317 17.0072 3.33317 18.3333H1.6665ZM8.33317 10.8333C5.57067 10.8333 3.33317 8.59581 3.33317 5.83331C3.33317 3.07081 5.57067 0.833313 8.33317 0.833313C11.0957 0.833313 13.3332 3.07081 13.3332 5.83331C13.3332 8.59581 11.0957 10.8333 8.33317 10.8333ZM8.33317 9.16665C10.1748 9.16665 11.6665 7.67498 11.6665 5.83331C11.6665 3.99165 10.1748 2.49998 8.33317 2.49998C6.4915 2.49998 4.99984 3.99165 4.99984 5.83331C4.99984 7.67498 6.4915 9.16665 8.33317 9.16665ZM15.2365 12.2525C16.4076 12.7799 17.4015 13.6343 18.0987 14.7131C18.7958 15.7918 19.1666 17.0489 19.1665 18.3333H17.4998C17.5 17.37 17.222 16.4271 16.6991 15.618C16.1762 14.8089 15.4307 14.168 14.5523 13.7725L15.2357 12.2525H15.2365ZM14.6632 2.84415C15.5028 3.19023 16.2206 3.77793 16.7257 4.53267C17.2307 5.28742 17.5002 6.17518 17.4998 7.08331C17.5002 8.22692 17.0729 9.32934 16.302 10.174C15.531 11.0187 14.4721 11.5445 13.3332 11.6483V9.97081C13.9506 9.88238 14.5235 9.59833 14.9676 9.16036C15.4117 8.72239 15.7037 8.15358 15.8008 7.53742C15.8979 6.92127 15.7948 6.29023 15.5068 5.73694C15.2188 5.18365 14.761 4.73727 14.2007 4.46331L14.6632 2.84415Z" fill="#7C7C7C"/>
</g>
<defs>
<clipPath id="clip0_21_9126">
<rect width="20" height="20" fill="white"/>
</clipPath>
</defs>
</svg>
