<svg width="16" height="18" viewBox="0 0 16 18" fill="none" xmlns="http://www.w3.org/2000/svg">
<path d="M15.5 1.49332V16.5067C15.4983 16.7255 15.4105 16.9349 15.2557 17.0896C15.1008 17.2442 14.8914 17.3318 14.6725 17.3333H1.3275C1.10818 17.3333 0.897826 17.2463 0.742664 17.0912C0.587501 16.9362 0.500221 16.726 0.5 16.5067V1.49332C0.501746 1.27447 0.589515 1.06509 0.744348 0.910417C0.899181 0.75574 1.10865 0.668182 1.3275 0.666656H14.6725C15.1292 0.666656 15.5 1.03666 15.5 1.49332ZM13.8333 2.33332H2.16667V15.6667H13.8333V2.33332ZM7.41083 9.93416L10.9467 6.39916L12.125 7.57749L7.41083 12.2917L4.16917 9.04999L5.34833 7.87166L7.41083 9.93416Z" fill="#7C7C7C"/>
</svg>
