<svg width="18" height="16" viewBox="0 0 18 16" fill="none" xmlns="http://www.w3.org/2000/svg">
<path d="M0.666504 1.3275C0.668029 1.10865 0.755587 0.899181 0.910265 0.744348C1.06494 0.589515 1.27432 0.501746 1.49317 0.5H16.5065C16.9632 0.5 17.3332 0.870833 17.3332 1.3275V14.6725C17.3316 14.8914 17.2441 15.1008 17.0894 15.2557C16.9347 15.4105 16.7254 15.4983 16.5065 15.5H1.49317C1.27385 15.4998 1.06358 15.4125 0.908578 15.2573C0.753572 15.1022 0.666504 14.8918 0.666504 14.6725V1.3275ZM2.33317 2.16667V13.8333H15.6665V2.16667H2.33317ZM3.99984 3.83333H8.99984V8.83333H3.99984V3.83333ZM5.6665 5.5V7.16667H7.33317V5.5H5.6665ZM3.99984 10.5H13.9998V12.1667H3.99984V10.5ZM10.6665 3.83333H13.9998V5.5H10.6665V3.83333ZM10.6665 7.16667H13.9998V8.83333H10.6665V7.16667Z" fill="#7C7C7C"/>
</svg>
